<?xml version="1.0" encoding="utf-8"?>
<!-- Generator: Adobe Illustrator 16.0.2, SVG Export Plug-In . SVG Version: 6.00 Build 0)  -->
<!DOCTYPE svg PUBLIC "-//W3C//DTD SVG 1.1//EN" "http://www.w3.org/Graphics/SVG/1.1/DTD/svg11.dtd">
<svg version="1.1" id="Layer_1" xmlns="http://www.w3.org/2000/svg" xmlns:xlink="http://www.w3.org/1999/xlink" x="0px" y="0px"
	 width="112px" height="16px" viewBox="0 0 112 16" enable-background="new 0 0 112 16" xml:space="preserve">
<path fill="#93C3CD" d="M8.889,0.047v5.283H16V0.047 M8.889,15.897H16V7.092H8.889 M0,15.897h7.111v-5.283H0 M0,8.853h7.111V0.047H0
	V8.853z"/>
<path fill="#93C3CD" d="M17.5,16V3.678c0-1.043,1.012-1.896,2.25-1.896l9-1.808v1.808c1.237,0,2.25,0.853,2.25,1.896V16h-6.75
	v-4.738h-4.5V16H17.5 M26.5,14.223h2.25v-2.667H26.5V14.223 M19.75,8.888H22V5.332h-2.25V8.888 M24.25,8.888h4.5V5.332h-4.5V8.888z"
	/>
<path fill="#93C3CD" d="M42.607,3.277h1.416V1.681h-1.416V0.89h1.203c-0.214-0.477-0.705-0.798-1.203-0.798
	c-0.775,0-1.41,0.716-1.41,1.588C41.197,2.561,41.832,3.277,42.607,3.277 M38.522,7.096l1.914-1.835l2.877,1.992h-4.655
	 M44.656,9.079l0.983-1.111c0.568-0.634,0.568-1.588,0-2.23l-1.196,1.358l-3.388-3.819c-0.206-0.403-0.62-0.642-1.054-0.642
	c-0.355,0-0.633,0.164-0.859,0.403l-2.586,2.939c-0.226,0.238-0.362,0.559-0.362,0.954v0.403h-0.847
	c-0.704,0-1.273,0.716-1.273,1.588v0.32c0.22-0.081,0.498-0.081,0.705-0.081c1.835,0,3.394,1.67,3.394,3.818
	c0,0.237,0,0.56-0.078,0.797h3.31c-0.063-0.237-0.063-0.56-0.063-0.797C41.341,10.75,42.82,9.079,44.656,9.079 M34.85,14.809
	c-0.982,0-1.758-0.873-1.758-1.984c0-1.119,0.776-1.992,1.758-1.992c0.989,0,1.765,0.873,1.765,1.992
	C36.614,13.936,35.839,14.809,34.85,14.809 M34.85,9.638c-1.552,0-2.818,1.434-2.818,3.187c0,1.745,1.267,3.177,2.818,3.177
	c1.551,0,2.825-1.432,2.825-3.177C37.674,11.071,36.401,9.638,34.85,9.638 M44.728,14.809c-0.989,0-1.765-0.873-1.765-1.984
	c0-1.119,0.775-1.992,1.765-1.992c0.982,0,1.759,0.873,1.759,1.992C46.486,13.936,45.71,14.809,44.728,14.809 M44.728,9.638
	c-1.552,0-2.825,1.434-2.825,3.187c0,1.745,1.273,3.177,2.825,3.177c1.553,0,2.819-1.432,2.819-3.177
	C47.547,11.071,46.28,9.638,44.728,9.638z"/>
<path fill="#93C3CD" d="M56.789,5.647h5.027l-5.027-4.4V5.647 M50.392,0.047h7.312l5.484,4.8v9.6c0,0.883-0.819,1.6-1.828,1.6
	H50.392c-1.014,0-1.829-0.721-1.829-1.6v-12.8C48.563,0.759,49.378,0.047,50.392,0.047 M51.305,14.447h1.828V9.646h-1.828V14.447
	 M54.962,14.447h1.827v-6.4h-1.827V14.447 M58.617,14.447h1.828v-3.199h-1.828V14.447z"/>
<path fill="#93C3CD" d="M74.847,15.5L73.657,4.731h1.769l-0.896-4.319l1.38-0.438L76.9,4.731H80L78.811,15.5H74.847 M66.522,5.986
	h3.964c1.316,0,2.379,1.274,2.379,2.854h-8.721C64.145,7.261,65.206,5.986,66.522,5.986 M72.865,12.646
	c0,1.579-1.063,2.854-2.379,2.854h-3.964c-1.316,0-2.378-1.275-2.378-2.854H72.865 M64.937,9.792h3.965l1.188,1.427l1.189-1.427
	h0.793c0.436,0,0.793,0.428,0.793,0.951s-0.357,0.951-0.793,0.951h-7.136c-0.436,0-0.792-0.428-0.792-0.951
	S64.501,9.792,64.937,9.792z"/>
<path fill="#93C3CD" d="M88.514,10.42c-0.916,0-1.664-0.718-1.664-1.594c0-0.885,0.748-1.595,1.664-1.595
	c0.914,0,1.662,0.718,1.662,1.595C90.176,9.702,89.428,10.42,88.514,10.42 M84.354,4.043c0-0.884,0.74-1.594,1.663-1.594
	c0.916,0,1.665,0.717,1.665,1.594c0,0.877-0.749,1.595-1.665,1.595C85.094,5.638,84.354,4.92,84.354,4.043 M88.514,0.058
	c-2.971,0-5.632,1.228-7.487,3.188L88.514,16L96,3.246C94.152,1.285,91.483,0.058,88.514,0.058z"/>
<path fill="#93C3CD" d="M104,0.047c2.21,0,4,1.79,4,4s-1.79,4-4,4s-4-1.79-4-4S101.79,0.047,104,0.047 M104,10.047
	c4.42,0,8,1.79,8,4v2H96v-2C96,11.837,99.58,10.047,104,10.047z"/>
</svg>
