<?xml version="1.0" encoding="utf-8"?>
<!-- Generator: Adobe Illustrator 16.0.2, SVG Export Plug-In . SVG Version: 6.00 Build 0)  -->
<!DOCTYPE svg PUBLIC "-//W3C//DTD SVG 1.1//EN" "http://www.w3.org/Graphics/SVG/1.1/DTD/svg11.dtd">
<svg version="1.1" id="Layer_1" xmlns="http://www.w3.org/2000/svg" xmlns:xlink="http://www.w3.org/1999/xlink" x="0px" y="0px"
	 width="133.864px" height="114.903px" viewBox="0 0 133.864 114.903" enable-background="new 0 0 133.864 114.903"
	 xml:space="preserve">
<g>
	<path fill="#38302F" d="M132.465,88.848c0,4.15-1.169,5.084-5.305,5.084H8.582c-4.136,0-5.617-0.934-5.617-5.084L3.081,9.02
		c0-4.151,0.741-6.206,4.877-6.206h119.203c4.136,0,5.305,1.778,5.305,5.929V88.848z"/>
	<rect x="9.831" y="9.991" fill="#CC3327" width="115.458" height="74.58"/>
	<g>
		<path fill="#FFFFFF" d="M43.521,48.677c-1.025,0.986-2.455,1.164-3.191,0.398L27.57,35.803c-0.737-0.766-0.501-2.187,0.524-3.173
			l0,0c1.025-0.986,2.455-1.164,3.191-0.398l12.759,13.273C44.781,46.271,44.546,47.691,43.521,48.677L43.521,48.677z"/>
		<path fill="#FFFFFF" d="M43.61,32.717c1.015,0.998,1.233,2.421,0.488,3.179L31.19,49.023c-0.745,0.758-2.172,0.563-3.186-0.434
			l0,0c-1.015-0.997-1.233-2.42-0.488-3.179l12.908-13.127C41.169,31.526,42.596,31.72,43.61,32.717L43.61,32.717z"/>
	</g>
	<g>
		<path fill="#FFFFFF" d="M105.827,48.677c-1.026,0.986-2.455,1.164-3.191,0.398L89.876,35.803
			c-0.737-0.766-0.502-2.187,0.523-3.173l0,0c1.025-0.986,2.455-1.164,3.191-0.398l12.759,13.273
			C107.087,46.271,106.852,47.691,105.827,48.677L105.827,48.677z"/>
		<path fill="#FFFFFF" d="M105.917,32.717c1.015,0.998,1.233,2.421,0.488,3.179L93.496,49.023c-0.745,0.758-2.172,0.563-3.187-0.434
			l0,0c-1.014-0.997-1.232-2.42-0.488-3.179l12.909-13.127C103.475,31.526,104.901,31.72,105.917,32.717L105.917,32.717z"/>
	</g>
	<path fill="#FFFFFF" d="M63.844,67.408c0.914,1.122,0.462,3.003-1.009,4.201l-3.703,3.017c-1.471,1.198-3.405,1.26-4.317,0.139l0,0
		c-0.915-1.122-0.463-3.003,1.008-4.201l3.703-3.017C60.997,66.348,62.931,66.286,63.844,67.408L63.844,67.408z"/>
	<path fill="#FFFFFF" d="M75.166,68.759c0,1.285-1.154,2.327-2.576,2.327h-9.787c-1.422,0-2.576-1.042-2.576-2.327l0,0
		c0-1.285,1.154-2.326,2.576-2.326h9.787C74.012,66.433,75.166,67.474,75.166,68.759L75.166,68.759z"/>
	<path fill="#FFFFFF" d="M80.518,74.43c-0.83,1.185-2.764,1.262-4.316,0.172l-3.911-2.743c-1.553-1.089-2.139-2.933-1.308-4.117l0,0
		c0.831-1.185,2.764-1.262,4.316-0.173l3.911,2.743C80.764,71.401,81.349,73.245,80.518,74.43L80.518,74.43z"/>
	<polyline fill="#FFFFFF" points="73.957,1.877 57.262,25.593 70.605,23.565 50.553,56.174 85.658,13.579 71.772,16.076 
		84.566,1.877 	"/>
	<polygon fill="#999595" points="49.46,108.286 85.658,108.286 80.896,93.932 54.342,93.932 	"/>
	<rect x="46.652" y="108.286" fill="#38302F" width="41.347" height="5.617"/>
</g>
</svg>
