<?xml version="1.0" encoding="utf-8"?>
<!-- Generator: Adobe Illustrator 16.0.2, SVG Export Plug-In . SVG Version: 6.00 Build 0)  -->
<!DOCTYPE svg PUBLIC "-//W3C//DTD SVG 1.1//EN" "http://www.w3.org/Graphics/SVG/1.1/DTD/svg11.dtd">
<svg version="1.1" id="Layer_1" xmlns="http://www.w3.org/2000/svg" xmlns:xlink="http://www.w3.org/1999/xlink" x="0px" y="0px"
	 width="247.02px" height="321px" viewBox="0 0 247.02 321" enable-background="new 0 0 247.02 321" xml:space="preserve">
<path fill="#323A45" d="M37.232,110.667h36.667c0,0-3.333-75.333,49.611-75.333c52.389,0,49.722,75.333,49.722,75.333h36.667
	c0,0,14.667-110.667-86.389-110.667C26.565,0,37.232,110.667,37.232,110.667z"/>
<g>
	<path fill="#323A45" d="M247.02,281c0,22-18,40-40,40H40c-22,0-40-18-40-40V163.999c0-22,18-40,40-40h167.02c22,0,40,18,40,40V281z
		"/>
</g>
<circle fill="#FFFFFF" cx="123.23" cy="210" r="26"/>
<path fill="#FFFFFF" d="M111.34,233.118c0,0-6.776,38.881,11.891,38.881s11.891-38.881,11.891-38.881"/>
</svg>
