<?xml version="1.0" encoding="utf-8"?>
<!-- Generator: Adobe Illustrator 16.0.2, SVG Export Plug-In . SVG Version: 6.00 Build 0)  -->
<!DOCTYPE svg PUBLIC "-//W3C//DTD SVG 1.1//EN" "http://www.w3.org/Graphics/SVG/1.1/DTD/svg11.dtd">
<svg version="1.1" id="Forma_1_1_" xmlns="http://www.w3.org/2000/svg" xmlns:xlink="http://www.w3.org/1999/xlink" x="0px" y="0px"
	 width="612px" height="392.65px" viewBox="0 0 612 392.65" enable-background="new 0 0 612 392.65" xml:space="preserve">
<g id="Forma_1">
	<g>
		<path fill-rule="evenodd" clip-rule="evenodd" fill="#FFFFFF" d="M257.005,216.504c13.019-4.6,9.892-24.347-8.654-23.354
			c-3.051,2.633-6.517,4.231-7.788,8.65C237.493,212.48,248.784,219.409,257.005,216.504z M319.309,344.516
			c0.288-0.288,0.577-0.577,0.866-0.865c-3.1-2.24-22.847-0.974-28.557-0.865c-0.72,1.873-1.442,3.749-2.164,5.623v0.433h26.826
			C317.29,347.4,318.299,345.959,319.309,344.516z M224.121,344.516c0.289-0.577,0.578-1.153,0.866-1.73H105.571
			c-0.577,1.73-1.154,3.459-1.731,5.189v0.434c39.224,0.144,78.461,0.289,117.686,0.433
			C222.391,347.4,223.256,345.959,224.121,344.516z M419.256,314.243c0.286-0.288,0.575-0.577,0.864-0.865
			c2.38,5.797,2.438,10.81,7.356,13.841c12.554,7.736,32.643-2.769,38.505-10.381h1.732c3.475,10.651,14.662,16.28,28.123,11.244
			c13.803-5.162,36.775-24.062,43.267-36.327c0.287-0.29,0.578-0.577,0.865-0.865c-2.651-2.507-4.529-4.902-7.786-6.92
			c-7.234,10.016-26.854,32.966-42.837,32.868c-0.433-0.287-0.865-0.576-1.297-0.865c-3.55-7.665,4.805-16.112,7.788-20.758
			c8.94-16,17.884-32.005,26.824-48.005c-3.605-0.144-7.211-0.288-10.816-0.433c-6.379-22.962-25.288-26.838-44.563-12.973
			c-11.174,8.036-15.937,21.844-23.364,33.732c-12.633,20.216-39.641,55.186-66.198,59.683c-2.566-2.595-4.365-7.999-6.489-10.813
			c5.479-3.027,10.962-6.054,16.44-9.081c16.054-10.014,29.559-27.914,37.21-46.276c5.365-12.879,4.411-31.333-8.654-35.03
			c-18.858-5.335-37.399,13.82-44.563,21.625c-25.923,28.236-46.963,66.705-87.4,80.007c-2.6-2.933-2.502-7.505-5.624-9.947
			c-0.289-0.431-0.577-0.865-0.865-1.297c6.201-3.603,12.403-7.208,18.604-10.811c14.345-10.39,27.915-25.395,35.045-42.815
			c4.944-12.077,5.646-30.954-6.058-35.896c-16.644-7.029-31.383,7.379-38.939,13.405c-28.373,22.631-42.02,59.49-76.149,76.549
			c-4.859,0.236-6.172-0.526-7.788-3.46c1.28-9.338,7.881-16.509,12.114-23.354c7.788-14.125,15.578-28.256,23.364-42.381
			c3.486-5.587,10.062-12.773,11.25-19.895h-19.903c-10.816,18.739-21.635,37.483-32.45,56.222
			c-9.065,13.025-23.369,22.329-37.642,30.273h-1.73c9.716-23.018,28.239-41.345,36.344-65.304
			c5.256-15.538-7.065-27.121-22.931-22.92c-5.188,1.373-9.784,4.746-13.846,7.352h-0.433c0.865-1.73,1.731-3.459,2.597-5.189
			c-6.922-0.145-13.846-0.289-20.768-0.432c-27.4,47.423-54.808,94.86-82.208,142.285v1.296c6.634,0.145,13.269,0.289,19.903,0.434
			c18.459-31.568,36.923-63.146,55.382-94.713c7.794-14.073,17.734-35.442,38.074-33.732c1.229,1.642,2.174,2.149,2.597,4.758
			c1.646,5.587-6.391,13.565-8.654,17.731c-4.605,8.476-22.004,44.583-29.421,46.707c-5.363,1.537-7.48-3.13-9.519-5.189
			c-3.75,1.729-7.5,3.459-11.249,5.189c0.808,6.17,4.712,10.25,9.086,12.975c21.027,13.098,46.854-5.008,60.574-12.975
			c6.175,23.836,25.679,19.9,41.968,8.65c30.055-20.758,49.129-65.148,82.207-79.574c14.338,0.425,5.213,19.875,1.73,25.083
			c-8.962,13.395-35.851,39.194-54.517,41.516c0.433,4.037,0.866,8.074,1.299,12.111c1.461,1.291,3.232,0.191,5.625,0.865
			c3.09,0.87,4.752,3.426,6.923,5.189v5.19c-15.839,9.009-37.077,10.589-44.998,27.245c-9.568,20.121,14.122,32.199,30.287,22.489
			c10.443-6.271,17.675-18.774,23.365-29.841c1.873-4.036,3.749-8.073,5.625-12.109c3.605-1.153,7.21-2.305,10.816-3.46
			c5.769-3.17,11.539-6.342,17.308-9.514c19.636-13.884,36.347-30.563,51.055-49.303c7.17-9.134,27.518-37.563,42.401-35.031
			c8.15,8.403,1.075,19.35-4.329,26.383c-11.028,14.354-31.918,35.838-52.351,39.786c0.433,4.325,0.865,8.65,1.298,12.976
			c5.335-0.151,9.306,1.111,11.248,4.325c1.521,1.786,1.154,3.65,0.867,6.486c-15.307,5.314-61.882,22.252-43.267,46.708
			c4.991,6.558,18.547,8.032,27.257,3.893c11.688-5.555,27.504-28.954,30.718-42.816c9.683-3.577,19.468-6.921,27.259-12.541
			C408.294,322.893,413.774,318.567,419.256,314.243z M462.954,270.563c4.059-7.279,7.298-16.31,12.979-22.056
			c2.848-2.88,7.126-3.508,10.386-6.055c6.925-0.241,8.977,1.763,11.249,6.055c-0.062,10.99-6.83,17.976-11.249,25.083
			c-9.225,14.83-20.934,43.298-43.701,43.248c-1.274-1.455-2.113-2.353-3.027-4.325
			C446.171,297.253,455.186,284.492,462.954,270.563z M240.131,367.87c-9.295-9.443,11.922-17.295,16.875-20.759
			c0.577,0.145,1.153,0.289,1.73,0.432C254.668,354.654,251.301,367.922,240.131,367.87z M333.587,367.87
			c-8.959-9.06,11.254-17.19,16.44-20.327h1.298C349.056,354.513,344.081,368.046,333.587,367.87z M559.871,180.177
			c-4.567-4.579-5.744-14.263-8.651-20.327c-6.346-11.963-12.694-23.932-19.037-35.895c-23.721-39.849-57.34-69.25-96.919-93.416
			c-18.145-11.08-40.808-16.788-63.169-23.354c-19.49-5.721-62.768-8.466-85.236-4.325c-17.352,3.199-32.081,2.136-47.16,6.92
			c-63.005,19.989-105.26,51.475-140.184,99.037c-11.848,16.134-21.546,33.168-31.152,51.897c-2.94,5.731-7.765,12.127-8.654,19.462
			H0.432v1.085c17.162,26.016,34.327,52.041,51.489,78.057c-1.712,9.797-10.659,21.005-15.576,28.976
			c-10.671,19.749-21.346,39.502-32.017,59.249c5.323,3.243,41.359,0.992,52.785,0.866c0.808-2.057,1.572-2.73,1.73-5.623H14.711
			c14.853-27.531,29.711-55.07,44.564-82.603c-15.43-23.784-30.864-47.574-46.295-71.358c-0.432-0.432-0.865-0.865-1.298-1.297
			c196.555-0.145,393.169-0.288,589.725-0.433c0.144,0.145,0.29,0.288,0.433,0.433c-14.564,25.226-29.134,50.458-43.698,75.684
			c-1.091,3.957,8.702,18.3,10.383,21.623c9.951,19.459,19.905,38.924,29.854,58.385v0.432
			c-70.374-0.288-140.767-0.577-211.141-0.865c-1.474,1.656-2.165,2.764-2.162,6.056c74.409,0.288,148.842,0.577,223.254,0.865
			c0.169-6.481-8.764-18.304-12.113-24.219c-10.384-20.325-20.77-40.654-31.153-60.98c15.575-27.674,31.153-55.358,46.729-83.035
			l0.005-0.005v-0.867C594.49,180.46,577.178,180.318,559.871,180.177z M259.167,20.161c14.855-1.442,29.712-2.884,44.566-4.326
			c45.411,0.056,82.357,7.286,112.925,21.625c7.469,3.503,15.768,6.547,21.202,12.109c0.873,0.78,0.32-0.01,0.865,1.297
			c-2.598,4.757-5.192,9.514-7.789,14.271c-10.96-4.901-21.921-9.804-32.883-14.704c-16.855-6.725-35.373-10.449-54.516-14.705
			c-42.617-9.473-95.977,4.143-125.474,17.3c-11.537,5.766-23.076,11.533-34.613,17.299c-3.24-3.667-6.913-11.463-7.355-17.299
			C197.663,34.889,227.707,28.771,259.167,20.161z M77.016,176.717c12.098-35.741,32.534-59.933,53.651-86.064
			c9.663-11.958,25.5-18.837,35.045-30.706c5.561,2.067,7.439,10.812,9.952,16.002c-0.846,4.625-23.954,20.922-28.557,25.516
			c-16.416,16.385-43.284,49.959-49.324,75.252H77.016z M228.017,176.717h-115.09c8.311-28.437,30.254-53.299,49.757-71.359
			c6.057-5.044,12.115-10.092,18.172-15.136c6.173,3.256,10.382,15.441,13.846,21.623c11.456,20.454,24.221,41.952,33.315,64.439
			V176.717z M330.126,176.717h-87.832c-20.173-28.103-34.107-62.118-51.055-93.416c17.893-15.36,41.719-23.477,68.362-30.273
			c10.671-1.442,21.346-2.884,32.017-4.325c36.424,0.05,68.164,0.83,94.754,10.379c7.498,3.171,15,6.344,22.5,9.514
			c4.47,2.883,8.94,5.767,13.413,8.65c-1.576,7.339-7.518,14.92-11.251,20.759c-7.786,14.414-15.578,28.833-23.364,43.248
			c-6.922,11.531-13.846,23.066-20.768,34.597C360.102,178.898,339.351,176.717,330.126,176.717z M508.818,176.717H379.016
			c2.021-11.127,11.819-23.071,17.308-32.004c11.535-20.468,23.075-40.944,34.613-61.412c34.434,22.506,60.18,52.732,77.882,92.117
			V176.717z M543.431,176.717h-19.04c-13.116-37.363-38.221-65.833-65.763-89.091c-6.006-5.07-12.607-11.587-20.335-14.705
			c-0.894-6.018,6.221-10.533,7.354-16.866c9.496,2.31,19.14,12.728,25.962,18.596c20.716,17.827,39.691,37.334,53.649,61.845
			c4.614,9.225,9.23,18.453,13.846,27.678c1.546,3.533,1.805,8.26,4.327,10.811V176.717z M276.475,123.955
			c-7.651,4.59-14.691,4.694-17.739,13.838c-4.897,14.688,11.575,32.571,27.257,28.543
			C306.897,160.969,307.229,122.953,276.475,123.955z M443.917,123.089c-7.06,4.987-14.043,4.119-17.308,12.975
			c-5.158,14.003,11.041,34.41,27.259,29.408C474.725,159.04,474.947,122.099,443.917,123.089z M245.323,70.328
			c-7.219,4.293-14.526,3.891-17.739,12.109c-7.139,18.257,13.488,35.491,30.719,29.408
			C279.156,104.484,272.917,69.43,245.323,70.328z M313.685,91.951c-4.906,3.827-9.594,4.491-11.684,11.244
			c-3.439,11.124,8.159,22.513,17.741,20.76C337.825,120.644,340.56,90.852,313.685,91.951z M346.133,131.307
			c-1.297,0.432-2.595,0.865-3.892,1.297c-4.782,6.538-3.244,13.843,3.459,17.298c10.589,0.302,11.11-6.994,9.951-16.001
			C353.29,132.197,350.316,131.273,346.133,131.307z M167.01,123.955c-5.758,4.134-12.526,3.536-15.575,10.378
			c-5.796,13.001,7.582,34.069,22.498,30.273C194.848,159.284,199.508,122.855,167.01,123.955z M366.471,66.867
			c-5.202,2.957-10.908,2.293-14.278,6.92c-8.49,11.645,0.455,26.202,11.248,28.111C387.992,106.241,393.727,65.92,366.471,66.867z"
			/>
	</g>
</g>
</svg>
